# xmcd
#
# Track frame offsets:
#	150
#	19045
#	31725
#	50459
#	70888
#	86145
#	105470
#	125299
#	143377
#	161942
#	179923
#	187843
# Disc length: 2854 seconds
# Revision: 1
# Processed by: cddbd v1.5.1PL2 Copyright (c) Steve Scherf et al.
#
# Submitted via: libkcddb 0.21
#
DISCID=9b0b240c
DTITLE=Fatamorgana - Fatamorgana
DYEAR=2005
DGENRE=Różne
TTITLE0=A. Maszczyk, L. Stawarz - Niespełnienie
TTITLE1=K. Chojnacka - New York
TTITLE2=K. Czajkowska - Gloomy Sunday
TTITLE3=A. Ciupek, A. Drążkiewicz - When You Believe
TTITLE4=J. Kania - Time For Us
TTITLE5=M. Kania - Memory
TTITLE6=J. Kania, L. Stawarz - All I Ask Of You
TTITLE7=A. Drążkiewicz - Gioconda
TTITLE8=T. Janczak, M. Kania - Tu cosa fai stasera
TTITLE9=A. Janus - New York State Of Mind
TTITLE10=D. Czajkowska - Big Spender
TTITLE11=D. Czajkowska, K. Czajkowska, K. Chojnacka, A. Janus, D. Rok - Wiązanka utworów Gershwina: Somebody Loves Me - The Man I Love, I Got Rhytm
EXTD=
EXTT0=m. K. Dębski, sł. E. Olszańska-Rok
EXTT1=m. J. Kander, sł. F. Ebb
EXTT2=m. R. Seress, sł. L. Javor
EXTT3=m. Babyface, sł. S. Schwartz
EXTT4=m. N. Rota, sł. L. Kusik and E. Synder
EXTT5=m. A. L. Webber, sł. T. S. Elliot
EXTT6=m. A. L. Webber, sł. Ch. Hart, R. Stilgoe
EXTT7=m. J. Kazior, sł. E. Olszańska-Rok
EXTT8=m. D. B. Bembo, sł. A. Casella, F. Peterson
EXTT9=m. i sł. Billy Joel
EXTT10=m. C. Coleman, sł. D. Fields
EXTT11=m. G. Gershwin
PLAYORDER=
